HIERARCHY
ROOT Hips
{
	OFFSET 0.000000 83.214638 0.000000
	CHANNELS 6 Xposition Yposition Zposition Xrotation Yrotation Zrotation
	JOINT Pelvis
	{
		OFFSET 0.000000 0.000000 0.000000
		CHANNELS 3 Xrotation Yrotation Zrotation
		JOINT LeftUpLeg
		{
			OFFSET 8.479700 -4.795502 -0.379100
			CHANNELS 3 Xrotation Yrotation Zrotation
			JOINT LeftLeg
			{
				OFFSET 0.024144 -32.555107 0.112900
				CHANNELS 3 Xrotation Yrotation Zrotation
				JOINT LeftFoot
				{
					OFFSET -0.024144 -32.638630 -3.012600
					CHANNELS 3 Xrotation Yrotation Zrotation
					JOINT LeftToeBase
					{
						OFFSET 0.970200 -13.225400 11.864200
						CHANNELS 3 Xrotation Yrotation Zrotation
						End Site
						{
							OFFSET 0.000000 12.319262 0.000000
						}
					}
					JOINT LFootTongue
					{
						OFFSET 1.142400 -1.059800 6.665200
						CHANNELS 3 Xrotation Yrotation Zrotation
						End Site
						{
							OFFSET 0.000000 12.319262 0.000000
						}
					}
				}
				JOINT LeftPantLeg
				{
					OFFSET 0.918482 -16.533964 -2.284700
					CHANNELS 3 Xrotation Yrotation Zrotation
					End Site
					{
						OFFSET 0.350399 24.744368 0.000000
					}
				}
			}
		}
		JOINT RightUpLeg
		{
			OFFSET -8.479700 -4.795502 -0.379100
			CHANNELS 3 Xrotation Yrotation Zrotation
			JOINT RightLeg
			{
				OFFSET -0.023144 -32.555092 0.112900
				CHANNELS 3 Xrotation Yrotation Zrotation
				JOINT RightFoot
				{
					OFFSET 0.023144 -32.638641 -3.012700
					CHANNELS 3 Xrotation Yrotation Zrotation
					JOINT RightToeBase
					{
						OFFSET -0.970200 -13.225400 11.864200
						CHANNELS 3 Xrotation Yrotation Zrotation
						End Site
						{
							OFFSET 0.000000 12.319244 0.000000
						}
					}
					JOINT RFootTongue
					{
						OFFSET -1.142200 -1.059800 6.665200
						CHANNELS 3 Xrotation Yrotation Zrotation
						End Site
						{
							OFFSET 0.000000 12.319243 0.000000
						}
					}
				}
				JOINT RightPantLeg
				{
					OFFSET -0.919482 -16.533978 -2.284800
					CHANNELS 3 Xrotation Yrotation Zrotation
					End Site
					{
						OFFSET -0.350400 24.744419 0.000000
					}
				}
			}
		}
	}
	JOINT Spine
	{
		OFFSET 0.000000 7.722000 1.166200
		CHANNELS 3 Xrotation Yrotation Zrotation
		JOINT Spine1
		{
			OFFSET 0.000000 12.024101 0.248800
			CHANNELS 3 Xrotation Yrotation Zrotation
			JOINT Spine2
			{
				OFFSET 0.000000 11.502998 -0.491200
				CHANNELS 3 Xrotation Yrotation Zrotation
				JOINT Neck
				{
					OFFSET 0.000000 18.430702 -3.123100
					CHANNELS 3 Xrotation Yrotation Zrotation
					JOINT Head
					{
						OFFSET 0.000000 9.051102 1.034000
						CHANNELS 3 Xrotation Yrotation Zrotation
						JOINT HairB
						{
							OFFSET 0.208400 24.786102 24.822300
							CHANNELS 3 Xrotation Yrotation Zrotation
							End Site
							{
								OFFSET 0.000000 32.263779 0.000000
							}
						}
						JOINT HairA
						{
							OFFSET -7.081100 24.428299 23.196600
							CHANNELS 3 Xrotation Yrotation Zrotation
							End Site
							{
								OFFSET 0.000000 32.263779 0.000000
							}
						}
						JOINT Hat
						{
							OFFSET 16.728800 15.048294 -15.439601
							CHANNELS 3 Xrotation Yrotation Zrotation
							End Site
							{
								OFFSET 0.000000 32.263779 0.000000
							}
						}
					}
				}
				JOINT LeftShoulder
				{
					OFFSET 6.197800 13.665199 -4.064700
					CHANNELS 3 Xrotation Yrotation Zrotation
					JOINT LeftArm
					{
						OFFSET 7.778100 -0.187103 -1.709300
						CHANNELS 3 Xrotation Yrotation Zrotation
						JOINT LeftForeArm
						{
							OFFSET 22.049376 0.000000 0.000000
							CHANNELS 3 Xrotation Yrotation Zrotation
							JOINT LeftHand
							{
								OFFSET 23.009392 0.000000 0.000000
								CHANNELS 3 Xrotation Yrotation Zrotation
								JOINT LeftHandThumb1
								{
									OFFSET 3.507191 -2.063065 3.133727
									CHANNELS 3 Xrotation Yrotation Zrotation
									JOINT LeftHandThumb2
									{
										OFFSET 3.101337 -1.790558 1.790558
										CHANNELS 3 Xrotation Yrotation Zrotation
										JOINT LeftHandThumb3
										{
											OFFSET 3.058640 -1.765907 1.765906
											CHANNELS 3 Xrotation Yrotation Zrotation
											End Site
											{
												OFFSET -0.415260 3.926476 -0.049563
											}
										}
									}
								}
								JOINT LeftHandIndex1
								{
									OFFSET 11.334419 -0.901459 3.706815
									CHANNELS 3 Xrotation Yrotation Zrotation
									JOINT LeftHandIndex2
									{
										OFFSET 3.283112 0.000000 0.000000
										CHANNELS 3 Xrotation Yrotation Zrotation
										JOINT LeftHandIndex3
										{
											OFFSET 3.323853 0.000000 0.000000
											CHANNELS 3 Xrotation Yrotation Zrotation
											End Site
											{
												OFFSET -1.135597 3.097809 0.402452
											}
										}
									}
								}
								JOINT LeftHandMiddle1
								{
									OFFSET 11.335861 0.000000 0.000000
									CHANNELS 3 Xrotation Yrotation Zrotation
									JOINT LeftHandMiddle2
									{
										OFFSET 3.410492 0.000000 0.000000
										CHANNELS 3 Xrotation Yrotation Zrotation
										JOINT LeftHandMiddle3
										{
											OFFSET 3.312172 0.000000 0.000000
											CHANNELS 3 Xrotation Yrotation Zrotation
											End Site
											{
												OFFSET -1.150200 3.080154 0.400270
											}
										}
									}
								}
								JOINT LeftHandRing1
								{
									OFFSET 11.514786 -0.013176 -3.003090
									CHANNELS 3 Xrotation Yrotation Zrotation
									JOINT LeftHandRing2
									{
										OFFSET 3.053307 0.000000 0.000000
										CHANNELS 3 Xrotation Yrotation Zrotation
										JOINT LeftHandRing3
										{
											OFFSET 3.295807 0.000000 0.000000
											CHANNELS 3 Xrotation Yrotation Zrotation
											End Site
											{
												OFFSET -1.281006 3.013344 0.375733
											}
										}
									}
								}
								JOINT LeftHandPinky1
								{
									OFFSET 10.518692 -0.960396 -5.730441
									CHANNELS 3 Xrotation Yrotation Zrotation
									JOINT LeftHandPinky2
									{
										OFFSET 2.861649 0.000000 0.000000
										CHANNELS 3 Xrotation Yrotation Zrotation
										JOINT LeftHandPinky3
										{
											OFFSET 2.863380 0.000000 0.000000
											CHANNELS 3 Xrotation Yrotation Zrotation
											End Site
											{
												OFFSET -0.843597 2.711159 0.369971
											}
										}
									}
								}
							}
							JOINT LSleeve
							{
								OFFSET 6.676277 -0.344902 -1.011730
								CHANNELS 3 Xrotation Yrotation Zrotation
								End Site
								{
									OFFSET 0.000000 14.885353 0.000000
								}
							}
						}
					}
				}
				JOINT RightShoulder
				{
					OFFSET -6.197800 13.665199 -4.064700
					CHANNELS 3 Xrotation Yrotation Zrotation
					JOINT RightArm
					{
						OFFSET -7.778100 -0.187103 -1.709300
						CHANNELS 3 Xrotation Yrotation Zrotation
						JOINT RightForeArm
						{
							OFFSET -22.049376 0.000000 0.000000
							CHANNELS 3 Xrotation Yrotation Zrotation
							JOINT RightHand
							{
								OFFSET -23.009392 0.000000 0.000000
								CHANNELS 3 Xrotation Yrotation Zrotation
								JOINT RightHandThumb1
								{
									OFFSET -3.507191 -2.063065 3.133727
									CHANNELS 3 Xrotation Yrotation Zrotation
									JOINT RightHandThumb2
									{
										OFFSET -3.101337 -1.790558 1.790558
										CHANNELS 3 Xrotation Yrotation Zrotation
										JOINT RightHandThumb3
										{
											OFFSET -3.058640 -1.765907 1.765906
											CHANNELS 3 Xrotation Yrotation Zrotation
											End Site
											{
												OFFSET 0.415260 3.926476 -0.049563
											}
										}
									}
								}
								JOINT RightHandIndex1
								{
									OFFSET -11.334419 -0.901459 3.706815
									CHANNELS 3 Xrotation Yrotation Zrotation
									JOINT RightHandIndex2
									{
										OFFSET -3.283112 0.000000 0.000000
										CHANNELS 3 Xrotation Yrotation Zrotation
										JOINT RightHandIndex3
										{
											OFFSET -3.323853 0.000000 0.000000
											CHANNELS 3 Xrotation Yrotation Zrotation
											End Site
											{
												OFFSET 1.135597 3.097809 0.402452
											}
										}
									}
								}
								JOINT RightHandMiddle1
								{
									OFFSET -11.335861 0.000000 0.000000
									CHANNELS 3 Xrotation Yrotation Zrotation
									JOINT RightHandMiddle2
									{
										OFFSET -3.410492 0.000000 0.000000
										CHANNELS 3 Xrotation Yrotation Zrotation
										JOINT RightHandMiddle3
										{
											OFFSET -3.312172 0.000000 0.000000
											CHANNELS 3 Xrotation Yrotation Zrotation
											End Site
											{
												OFFSET 1.150200 3.080154 0.400270
											}
										}
									}
								}
								JOINT RightHandRing1
								{
									OFFSET -11.514786 -0.013176 -3.003090
									CHANNELS 3 Xrotation Yrotation Zrotation
									JOINT RightHandRing2
									{
										OFFSET -3.053307 0.000000 0.000000
										CHANNELS 3 Xrotation Yrotation Zrotation
										JOINT RightHandRing3
										{
											OFFSET -3.295807 0.000000 0.000000
											CHANNELS 3 Xrotation Yrotation Zrotation
											End Site
											{
												OFFSET 1.281006 3.013344 0.375733
											}
										}
									}
								}
								JOINT RightHandPinky1
								{
									OFFSET -10.518692 -0.960396 -5.730441
									CHANNELS 3 Xrotation Yrotation Zrotation
									JOINT RightHandPinky2
									{
										OFFSET -2.861649 0.000000 0.000000
										CHANNELS 3 Xrotation Yrotation Zrotation
										JOINT RightHandPinky3
										{
											OFFSET -2.863380 0.000000 0.000000
											CHANNELS 3 Xrotation Yrotation Zrotation
											End Site
											{
												OFFSET 0.843597 2.711159 0.369971
											}
										}
									}
								}
							}
							JOINT RSleeve
							{
								OFFSET -6.676277 -0.344902 -1.011730
								CHANNELS 3 Xrotation Yrotation Zrotation
								End Site
								{
									OFFSET 0.000000 14.885353 0.000000
								}
							}
						}
					}
				}
				JOINT Backpack
				{
					OFFSET 0.000000 -2.471497 36.677502
					CHANNELS 3 Xrotation Yrotation Zrotation
					End Site
					{
						OFFSET 0.000000 20.427315 0.000000
					}
				}
				JOINT Hood
				{
					OFFSET 0.000000 18.754097 -10.431000
					CHANNELS 3 Xrotation Yrotation Zrotation
					JOINT Hood1
					{
						OFFSET 0.000000 -5.011002 -7.685901
						CHANNELS 3 Xrotation Yrotation Zrotation
						End Site
						{
							OFFSET 0.000000 9.175140 0.000000
						}
					}
				}
				JOINT LHoodieString
				{
					OFFSET 5.250500 16.397697 3.089900
					CHANNELS 3 Xrotation Yrotation Zrotation
					JOINT LHoodieString1
					{
						OFFSET 0.257700 -6.364304 3.694600
						CHANNELS 3 Xrotation Yrotation Zrotation
						JOINT LHoodieString2
						{
							OFFSET 0.000000 -9.643799 2.679100
							CHANNELS 3 Xrotation Yrotation Zrotation
							End Site
							{
								OFFSET 0.000000 10.009018 0.000000
							}
						}
					}
				}
				JOINT RHoodieString
				{
					OFFSET -5.250500 16.397697 3.089900
					CHANNELS 3 Xrotation Yrotation Zrotation
					JOINT RHoodieString1
					{
						OFFSET -0.257700 -6.364304 3.694600
						CHANNELS 3 Xrotation Yrotation Zrotation
						JOINT RHoodieString2
						{
							OFFSET 0.000000 -9.643799 2.679100
							CHANNELS 3 Xrotation Yrotation Zrotation
							End Site
							{
								OFFSET 0.000000 10.009018 0.000000
							}
						}
					}
				}
			}
			JOINT LBackpack_Strap
			{
				OFFSET 15.223200 -7.719803 -6.610900
				CHANNELS 3 Xrotation Yrotation Zrotation
				End Site
				{
					OFFSET 0.000000 16.040596 0.000000
				}
			}
			JOINT RBackpack_Strap
			{
				OFFSET -15.223000 -7.719803 -6.610900
				CHANNELS 3 Xrotation Yrotation Zrotation
				End Site
				{
					OFFSET 0.000000 16.040596 0.000000
				}
			}
		}
	}
	JOINT BoyFacialAnim_Joint
	{
		OFFSET 1.000000 -82.208099 -1.550900
		CHANNELS 3 Xrotation Yrotation Zrotation
		End Site
		{
			OFFSET 0.000000 30.012791 0.000000
		}
	}
}
MOTION
Frames: 5
Frame Time: 0.033333
-6.563959 82.414803 5.728107 1.782657 -0.187333 -0.420990 0.000000 -0.000000 0.000000 -4.997257 -6.832899 4.453795 10.191843 -0.269859 -0.115143 -5.882443 14.165358 -4.392162 -0.000000 -0.000000 -0.000000 -0.000000 -0.000000 0.000000 -0.000001 -0.000000 0.000000 -10.725404 -13.720828 -4.826386 12.197370 0.072046 0.237212 -3.303921 -1.945058 2.831970 0.000000 0.000000 0.000000 0.000000 0.000000 0.000000 -0.000000 -0.000001 0.000000 0.004070 0.188300 0.249910 0.007238 0.380737 0.514509 0.007238 0.380737 0.514509 13.395378 2.638849 -2.896828 -10.351996 -5.666134 3.003431 -0.000000 -0.000000 0.000000 -0.000000 -0.000000 0.000000 -0.000000 -0.000000 0.000000 2.412258 -0.627222 -4.046537 18.826523 -36.726528 -64.798449 -3.287223 -25.471258 -0.424769 -9.934744 -3.940671 8.705104 2.153200 2.328662 12.225673 2.018056 18.442957 -6.232602 0.000001 0.000000 0.000002 -5.942254 8.665900 -18.348542 0.168502 0.516563 -29.758984 -0.000001 -0.000001 -0.000000 -5.531975 7.027290 -27.856218 -0.285012 -1.577421 -19.685167 -0.000000 0.000001 -0.000001 -7.787547 4.220241 -25.419838 -0.770155 -2.644370 -32.830616 0.000002 0.000001 -0.000005 -1.630995 0.277052 -20.581745 -2.347066 -5.097036 -49.519353 -0.000002 -0.000001 0.000001 -0.000002 -0.000000 0.000001 4.202793 5.112132 2.974245 18.751250 35.056113 61.971017 -9.517537 26.751699 -0.404487 -0.081327 -4.836767 -2.689885 -19.621602 -1.996819 -9.786140 7.317441 -17.694700 4.011920 0.000001 -0.000000 -0.000002 -11.309884 -1.253641 21.418307 0.122050 -0.696242 17.177067 -0.000001 0.000002 0.000002 -5.108110 1.023780 16.930026 -0.530128 1.846887 31.391054 0.000003 -0.000000 0.000001 -14.428363 -3.660124 20.333272 -1.585696 3.972383 39.979242 -0.000002 0.000001 0.000004 -3.449049 5.908337 27.349474 -1.729071 5.621368 34.439368 -0.000002 0.000002 0.000001 0.000003 -0.000001 -0.000000 -0.000000 -0.000000 -0.000000 -0.000000 -0.000000 -0.000000 -0.000000 -0.000000 -0.000000 -0.000000 -0.000000 -0.000000 -0.000000 -0.000000 -0.000000 -0.000000 -0.000000 -0.000000 -0.000000 -0.000000 -0.000000 -0.000000 -0.000000 -0.000000 -0.000000 -0.000000 -0.000000 0.000000 -0.000000 -0.000000 0.000000 -0.000000 -0.000000 0.000000 -0.000000 0.000000 
-6.557008 82.371078 5.782661 1.666863 -0.143288 -0.471046 0.000000 0.000000 -0.000000 -5.134777 -6.879373 4.477743 10.799795 -0.266632 -0.130667 -6.235557 14.147387 -4.382581 -0.000000 -0.000000 -0.000000 -0.000000 -0.000000 -0.000000 0.000000 -0.000000 -0.000000 -10.762099 -13.889677 -4.869654 12.611545 0.077302 0.251824 -3.569167 -1.819946 2.842387 0.000000 0.000000 -0.000000 0.000000 0.000000 -0.000000 0.000000 0.000001 -0.000000 -0.007012 0.189023 0.246537 -0.014882 0.382222 0.500718 -0.014882 0.382222 0.500717 13.362683 2.640999 -2.882607 -10.380837 -5.669297 3.020130 0.000000 0.000000 0.000000 0.000000 0.000000 0.000000 0.000000 0.000000 0.000000 2.410077 -0.654831 -4.006493 18.838543 -36.673844 -64.565642 -3.288814 -25.744569 -0.429517 -9.868333 -3.826167 8.581344 2.141751 2.285792 12.304734 1.996122 18.391022 -6.218276 -0.000001 0.000000 0.000003 -5.946961 8.661363 -18.304412 0.167937 0.516017 -29.714666 -0.000003 -0.000000 -0.000002 -5.528353 7.111765 -27.803996 -0.284881 -1.577057 -19.680526 0.000003 0.000001 -0.000003 -7.773682 4.268194 -25.435035 -0.772677 -2.648232 -32.884871 0.000002 -0.000001 -0.000004 -1.643155 0.265141 -20.752249 -2.346886 -5.096860 -49.517345 -0.000002 0.000003 0.000006 0.000001 -0.000001 0.000001 4.199207 5.134184 2.983981 18.943239 35.216930 61.957650 -9.515289 27.008346 -0.409199 -0.114927 -4.997303 -2.498459 -19.652372 -1.912460 -9.781136 7.273083 -17.605810 4.005667 -0.000000 -0.000001 -0.000001 -11.303034 -1.165665 21.346136 0.122339 -0.697475 17.210219 -0.000002 0.000002 0.000002 -5.118023 1.094511 16.956421 -0.530686 1.847461 31.402905 0.000003 0.000000 -0.000000 -14.406307 -3.755656 20.250351 -1.589190 3.976567 40.029823 0.000000 -0.000000 0.000002 -3.435907 5.867131 27.406769 -1.738100 5.634536 34.532811 -0.000000 -0.000001 0.000002 -0.000002 -0.000000 -0.000000 0.000000 -0.000000 -0.000000 0.000000 -0.000000 -0.000000 0.000000 -0.000000 -0.000000 0.000000 -0.000000 -0.000000 0.000000 -0.000000 -0.000000 0.000000 -0.000000 0.000000 0.000000 -0.000000 -0.000000 0.000000 -0.000000 -0.000000 0.000000 -0.000000 0.000000 -0.000000 -0.000000 0.000000 -0.000000 -0.000000 0.000000 0.000000 0.000000 -0.000000 
-6.555074 82.319336 5.846191 1.523030 -0.092341 -0.536395 0.000000 -0.000000 0.000000 -5.277930 -6.913273 4.522315 11.494025 -0.266589 -0.148742 -6.640091 14.106934 -4.378443 -0.000000 -0.000000 -0.000000 -0.000000 -0.000000 -0.000000 -0.000001 0.000000 -0.000000 -10.787223 -14.094531 -4.907070 13.081793 0.083120 0.267532 -3.873381 -1.667519 2.849704 -0.000000 0.000000 0.000000 -0.000000 0.000000 0.000000 0.000000 -0.000001 0.000000 -0.021208 0.191549 0.248561 -0.043250 0.387380 0.495929 -0.043250 0.387380 0.495929 13.337877 2.642249 -2.875176 -10.400141 -5.666640 3.018146 0.000000 -0.000000 -0.000000 0.000000 -0.000000 -0.000000 0.000000 -0.000000 -0.000000 2.408110 -0.678978 -3.939341 18.932132 -36.726579 -64.317221 -3.290991 -26.090930 -0.435637 -10.504493 -3.509691 8.495919 1.888823 1.155973 12.696166 1.955852 18.288754 -6.190735 -0.000000 -0.000001 0.000002 -5.925339 8.809277 -18.671750 0.167763 0.516027 -29.712412 -0.000000 -0.000000 -0.000002 -5.550170 6.764975 -27.791329 -0.280716 -1.565295 -19.527919 0.000002 0.000001 -0.000001 -7.751574 4.329918 -25.059665 -0.763857 -2.634694 -32.694825 0.000000 -0.000001 -0.000002 -1.732091 0.089091 -21.442703 -2.343446 -5.093994 -49.478768 -0.000001 -0.000000 0.000001 -0.000000 0.000001 0.000001 4.199099 5.148563 2.956195 19.155576 35.378430 61.887442 -9.512818 27.278865 -0.414248 -0.256920 -5.144352 -2.288156 -19.788776 -1.650780 -9.544391 7.278565 -17.609686 4.017202 0.000001 0.000001 -0.000001 -11.299042 -1.055448 21.392084 0.121165 -0.694597 17.129172 0.000002 -0.000002 0.000002 -5.152700 1.235130 17.174482 -0.526897 1.840856 31.279084 0.000004 -0.000000 -0.000002 -14.369586 -3.947711 20.245482 -1.587819 3.974968 40.010463 0.000004 0.000001 0.000008 -3.500368 5.905346 27.667870 -1.726307 5.617892 34.414499 -0.000005 0.000003 0.000002 0.000002 -0.000001 -0.000001 0.000000 0.000000 0.000000 0.000000 0.000000 0.000000 0.000000 0.000000 0.000000 0.000000 0.000000 0.000000 0.000000 0.000000 0.000000 0.000000 0.000000 0.000000 0.000000 0.000000 0.000000 0.000000 0.000000 0.000000 0.000000 0.000000 0.000000 -0.000000 0.000000 -0.000000 -0.000000 0.000000 -0.000000 0.000000 -0.000000 0.000000 
-6.559272 82.260544 5.920156 1.356635 -0.044869 -0.604643 -0.000000 -0.000000 0.000000 -5.408410 -6.926201 4.577638 12.232322 -0.264575 -0.168579 -7.078598 14.043383 -4.379811 -0.000000 0.000000 -0.000000 -0.000000 0.000000 0.000000 -0.000001 0.000000 -0.000001 -10.808668 -14.303540 -4.947141 13.612012 0.093395 0.285446 -4.219176 -1.509639 2.853318 0.000000 -0.000002 0.000000 0.000000 -0.000002 0.000000 0.000000 0.000001 -0.000000 -0.035283 0.192892 0.254869 -0.071384 0.390266 0.499340 -0.071384 0.390266 0.499340 13.300492 2.645381 -2.870307 -10.435269 -5.660061 3.002978 -0.000000 -0.000000 -0.000000 -0.000000 -0.000000 -0.000000 -0.000000 -0.000000 -0.000000 2.406175 -0.694814 -3.854947 19.038350 -36.792884 -64.133919 -3.293476 -26.422795 -0.441706 -11.191894 -3.753562 8.653291 1.056792 -1.737837 12.642481 1.748200 17.754802 -6.048503 0.000003 -0.000002 0.000004 -5.877234 8.875261 -19.290438 0.167785 0.516294 -29.728917 -0.000002 -0.000001 -0.000004 -5.614430 5.691916 -27.889587 -0.273263 -1.544082 -19.252973 -0.000001 0.000000 0.000000 -7.759465 4.260841 -23.948662 -0.740911 -2.598874 -32.194264 -0.000001 -0.000000 -0.000006 -1.811635 -0.070518 -21.989951 -2.339030 -5.090288 -49.429119 -0.000000 0.000000 0.000001 -0.000001 0.000002 0.000000 4.198616 5.189695 2.880859 19.297837 35.493669 61.758803 -9.511126 27.466672 -0.417769 -0.536160 -5.061449 -2.278328 -20.061814 -1.189828 -8.993751 7.271307 -17.590280 4.024025 -0.000002 0.000002 -0.000001 -11.293360 -0.886317 21.507723 0.118040 -0.686468 16.900139 -0.000001 0.000000 0.000002 -5.200583 1.401497 17.493916 -0.515833 1.822086 30.926082 0.000005 -0.000001 0.000007 -14.326445 -4.199328 20.387587 -1.580662 3.966504 39.907580 -0.000004 0.000001 0.000002 -3.668805 6.064653 28.135749 -1.706406 5.589386 34.212547 0.000001 -0.000001 -0.000003 -0.000001 -0.000001 -0.000000 -0.000000 -0.000000 -0.000000 -0.000000 -0.000000 -0.000000 -0.000000 -0.000000 -0.000000 -0.000000 -0.000000 -0.000000 -0.000000 -0.000000 -0.000000 -0.000000 0.000000 0.000000 -0.000000 -0.000000 -0.000000 -0.000000 -0.000000 -0.000000 -0.000000 0.000000 0.000000 0.000000 -0.000000 0.000000 0.000000 -0.000000 0.000000 -0.000000 -0.000000 0.000000 
-6.570740 82.193344 6.001864 1.166806 -0.005133 -0.661542 0.000000 0.000000 -0.000000 -5.517912 -6.917643 4.630938 12.997508 -0.267612 -0.191594 -7.543156 13.969194 -4.384581 -0.000000 -0.000000 -0.000000 -0.000000 -0.000000 -0.000000 -0.000001 0.000000 -0.000000 -10.843401 -14.470230 -5.001725 14.233643 0.100441 0.306817 -4.620821 -1.377348 2.853346 -0.000000 -0.000000 0.000000 -0.000000 -0.000000 0.000000 0.000000 -0.000001 -0.000000 -0.037582 0.190255 0.258485 -0.075946 0.385307 0.499270 -0.075946 0.385307 0.499270 13.221643 2.645974 -2.851939 -10.562600 -5.675407 3.019023 0.000000 0.000000 -0.000000 0.000000 0.000000 -0.000000 0.000000 0.000000 -0.000000 2.404791 -0.706017 -3.748842 18.784815 -36.456326 -64.132123 -3.295630 -26.572342 -0.444676 -10.229205 -5.569729 9.404735 -0.500368 -6.169866 11.497539 1.448488 16.984604 -5.846177 0.000001 -0.000001 -0.000001 -5.747715 8.921061 -20.837213 0.167575 0.516270 -29.723443 -0.000002 -0.000002 -0.000002 -5.702994 4.267537 -28.547375 -0.265855 -1.522699 -18.976239 0.000005 0.000001 -0.000001 -7.826729 3.949229 -22.909706 -0.718670 -2.563293 -31.700605 -0.000004 -0.000000 -0.000006 -1.892284 -0.290343 -22.169544 -2.338884 -5.090170 -49.427514 0.000000 -0.000002 0.000001 -0.000000 0.000002 -0.000001 4.195254 5.299934 2.720798 19.197573 35.464115 61.598498 -9.511088 27.499936 -0.418514 -0.784327 -4.570212 -2.612739 -20.445888 -0.586941 -8.224851 7.098062 -17.263489 3.971535 0.000001 0.000001 0.000001 -11.277649 -0.646603 21.533708 0.113154 -0.673098 16.525882 0.000001 -0.000001 0.000002 -5.239627 1.527425 17.754112 -0.499483 1.794080 30.401370 0.000007 -0.000002 0.000001 -14.291338 -4.426694 20.693508 -1.569220 3.952845 39.742105 -0.000001 0.000000 0.000000 -3.921095 6.335606 28.689687 -1.691034 5.567242 34.056054 -0.000003 0.000001 0.000000 0.000003 -0.000000 0.000000 0.000000 0.000000 -0.000000 0.000000 0.000000 -0.000000 0.000000 0.000000 -0.000000 0.000000 0.000000 -0.000000 0.000000 0.000000 -0.000000 0.000000 0.000000 -0.000000 0.000000 0.000000 -0.000000 0.000000 0.000000 -0.000000 0.000000 0.000000 -0.000000 0.000000 -0.000000 0.000000 0.000000 -0.000000 0.000000 0.000000 0.000000 -0.000000 
